<?xml version="1.0" standalone="no"?>
<!DOCTYPE svg PUBLIC "-//W3C//DTD SVG 20010904//EN"
 "http://www.w3.org/TR/2001/REC-SVG-20010904/DTD/svg10.dtd">
<svg version="1.0" xmlns="http://www.w3.org/2000/svg"
 width="282.000000pt" height="282.000000pt" viewBox="0 0 282.000000 282.000000"
 preserveAspectRatio="xMidYMid meet">
<metadata>
Created by potrace 1.11, written by Peter Selinger 2001-2013
</metadata>
<g transform="translate(0.000000,282.000000) scale(0.100000,-0.100000)"
fill="#000000" stroke="none">
<path d="M919 2240 c-257 -17 -257 -17 -290 -62 -16 -22 -56 -89 -89 -148
l-60 -108 -57 5 c-108 10 -193 -31 -193 -91 0 -49 39 -84 98 -88 l46 -3 -53
-60 c-29 -33 -60 -73 -68 -90 -23 -43 -36 -276 -28 -473 7 -157 8 -164 31
-179 52 -34 244 -71 489 -93 315 -29 1101 -29 1390 0 220 22 364 51 388 78 22
24 37 207 37 435 0 211 -2 219 -75 323 l-44 64 38 0 c76 0 120 95 65 139 -38
30 -100 44 -165 38 l-57 -5 -66 112 c-37 61 -81 128 -99 149 -31 36 -35 38
-122 48 -114 13 -961 20 -1116 9z m1109 -106 c37 -5 48 -13 81 -58 73 -96 184
-307 170 -321 -3 -2 -43 0 -89 5 -47 5 -219 15 -383 21 -300 13 -301 13 -1139
-18 -122 -5 -148 -3 -148 8 0 40 159 322 194 344 12 8 60 19 107 24 89 10
1133 6 1207 -5z m-1588 -600 c73 -51 125 -73 245 -104 131 -33 154 -44 214
-97 l43 -38 -169 6 c-187 7 -278 25 -330 65 -47 36 -73 92 -73 159 0 62 -4 62
70 9z m1967 -25 c-6 -72 -35 -121 -90 -154 -61 -35 -122 -46 -309 -53 l-167
-7 30 31 c47 49 119 83 219 104 101 22 194 62 261 114 24 18 48 31 53 28 5 -2
6 -31 3 -63z"/>
<path d="M225 775 l-7 -105 -52 0 c-29 0 -57 -5 -64 -12 -15 -15 -15 -61 0
-76 17 -17 2569 -17 2586 0 17 17 15 54 -4 72 -10 11 -34 16 -74 16 l-58 0 -4
99 c-1 55 -6 102 -10 106 -3 4 -42 -5 -85 -19 -107 -33 -231 -56 -309 -56
l-64 0 0 -65 0 -65 -695 0 -695 0 0 65 0 65 -66 0 c-74 0 -229 29 -318 60 -33
11 -62 20 -67 20 -4 0 -10 -47 -14 -105z"/>
</g>
</svg>
